<?xml version="1.0" encoding="utf-8"?>
<!-- Generator: Adobe Illustrator 25.0.1, SVG Export Plug-In . SVG Version: 6.00 Build 0)  -->
<svg version="1.1" xmlns="http://www.w3.org/2000/svg" xmlns:xlink="http://www.w3.org/1999/xlink" x="0px" y="0px"
	 width="144.776px" height="30.041px" viewBox="0 0 144.776 30.041" style="enable-background:new 0 0 144.776 30.041;"
	 xml:space="preserve">
<style type="text/css">
	.st0{fill:#FFFFFF;}
	.st1{fill:#222222;}
	.st2{fill:#EEEEEF;}
	.st3{fill:#3E3A39;}
	.st4{fill:#3D393A;}
</style>
<g id="圖層_1">
</g>
<g id="圖層_2">
	<g>
		<path class="st1" d="M143.865,17.328c-0.676-0.357-1.394-0.579-2.085-0.605c-0.492-0.018-0.772-0.397-1.2-0.376
			c-1.288,0.064-2.469-0.515-3.723-0.605c-0.664-0.048-1.194-0.446-1.813-0.539c-0.98-0.146-1.974-0.303-2.838-0.758
			c-0.625-0.329-1.3-0.206-1.896-0.471c-0.64-0.285-1.342-0.098-1.958-0.273c-0.532-0.151-1.039-0.152-1.561-0.182
			c-0.839-0.048-1.655-0.097-2.498,0.186c-0.293,0.099-0.671-0.139-0.983,0.277c-0.09,0.12-0.692-0.24-0.958-0.132
			c-0.713,0.29-1.47,0.414-2.184,0.689c-0.838,0.322-1.165,0.18-1.595-0.564c-0.094-0.163-0.107-0.392-0.314-0.473
			c-1.13-0.441-2.165-1.153-3.515-0.852c-1.009,0.225-2.06,0.159-3.077,0.516c-1.063,0.372-2.219,0.587-3.343,0.218
			c-0.664-0.218-1.278-0.056-1.921-0.031c-0.411,0.016-0.401,0.429-0.698,0.484c-0.014-0.475-0.404-0.307-0.63-0.324
			c-0.449-0.034-0.867,0.191-1.242,0.384c-0.508,0.261-1.142,0.274-1.472,0.086c-0.987-0.564-2.027-0.575-3.084-0.657
			c-0.405-0.032-0.757,0.005-1.13,0.169c-0.358,0.157-0.464-0.102-0.771-0.128c-0.294-0.026-0.396,0.307-0.667,0.296
			c-0.259-0.011-0.515-0.075-0.769-0.052c-0.279,0.026-0.544,0.172-0.831,0.1c-0.243-0.061-0.35-0.133-0.318-0.362
			c0.077-0.538,0.276-1.182,0.503-1.514c0.584-0.853,1.244-1.697,1.985-2.452c0.663-0.675,1.446-1.261,1.841-2.151
			c0.187-0.423,0.37-0.884,0.696-1.16c1.199-1.016,1.763-2.363,2.193-3.803c0.035-0.118,0.046-0.271-0.046-0.298
			c-0.699-0.207-1.031-1.021-1.903-1.022c-0.477-0.001-1.027,0.279-1.285,0.167c-0.661-0.288-1.022,0.074-1.368,0.391
			c-0.501,0.46-1.055,0.897-1.466,1.412c-0.318,0.399-0.945,0.675-0.939,1.215c0.008,0.729-0.762,1.064-0.75,1.823
			c0.004,0.229,0.143,0.628-0.045,0.855C93.72,7.394,93.862,8.044,93.888,8.7c0.009,0.213-0.091,0.428-0.224,0.656
			c-0.539,0.921-1.367,1.553-2.184,2.132c-0.423,0.3-0.644,0.901-1.077,0.956c-0.623,0.079-1.12,0.53-1.425,0.803
			c-0.435,0.39-0.992,0.54-1.426,0.815c-0.562,0.356-1.268,0.64-1.902,0.947c-0.921,0.446-1.831,0.77-2.858,0.747
			c-0.21-0.005-0.386-0.058-0.511-0.227c-0.206-0.277,0.145-0.293,0.222-0.436c0.254-0.474,0.646-0.843,0.903-1.341
			c0.322-0.625-0.118-1.094-0.177-1.587c-0.11-0.925-0.976-1.49-1.8-1.928c-0.663-0.352-1.384-0.361-2.118-0.449
			c-0.703-0.085-1.292-0.099-1.866,0.211c-0.45,0.243-0.932,0.374-1.403,0.471c-0.489,0.101-0.402,0.822-1.163,0.749
			c-0.532-0.051-1.143,0.694-1.714,1.091c-0.424,0.295-0.833,0.611-1.261,0.899c-0.395,0.266-0.498,0.875-1.171,0.853
			c-0.312-0.01-0.484,0.524-0.864,0.601c-0.246,0.049-0.707,0.095-0.526-0.264c0.304-0.601-0.125-0.768-0.424-0.962
			c-0.359-0.233-0.527-0.805-1.016-0.741c-0.606,0.078-1.223,0.014-1.829,0.231c-0.459,0.165-0.853,0.674-1.12,0.686
			c-0.858,0.038-1.26,0.582-1.753,1.086c-0.106,0.109-0.154,0.323-0.349,0.302c-0.86-0.094-0.86-0.099-1.083,0.614
			c-0.593-0.258-0.756-0.649-0.679-1.319c0.085-0.744,0.391-1.438,0.376-2.207c-0.012-0.648,0.336-1.262-0.728-1.529
			c-0.448-0.113-0.648-0.478-1.099,0.03c-0.274,0.309-0.862,0.645-0.86,0.889c0.003,0.406-0.158,0.542-0.408,0.68
			c-0.424,0.234-0.75,0.587-1.182,0.833c-0.985,0.56-1.894,1.269-2.784,1.978c-0.683,0.544-1.609,0.777-2.265,0.678
			c-0.59-0.089-1.379-0.416-1.951-0.892c-0.601-0.5-1.327-0.801-2.077-0.997c-0.595-0.156-1.471-0.458-2.061-0.168
			c-0.295,0.145-0.443,0.119-0.618,0.399c-0.148,0.239-0.319,0.45-0.508,0.658c-0.36,0.396-0.747,0.78-0.916,1.302
			c-0.134,0.417-0.544,0.829-0.939,1.049c-0.26,0.145-0.633-0.258-0.963-0.373c-0.925-0.324-1.868-0.528-2.745,0.162
			c-0.152,0.12-0.33,0.158-0.521,0.209c-0.882,0.237-1.78,0.125-2.664,0.206c-0.662,0.061-1.142-0.152-1.541-0.577
			c-0.376-0.4-0.698-0.862-0.982-1.334c-0.791-1.317-2.05-2.118-3.351-2.745c-1.126-0.543-2.474-0.417-3.717-0.498
			c-1.054-0.068-1.739-0.475-2.339-1.253c-0.699-0.905-1.696-1.531-2.381-2.455c-0.098-0.133-0.395,0.053-0.365-0.206
			c0.035-0.304,0.317-0.101,0.452-0.169c0.594-0.301,1.404-0.355,1.683-1.039c0.145-0.357,0.383-0.649,0.552-0.983
			c-0.3-0.205-0.579-0.559-0.829-0.539c-1.073,0.086-2.124,0.348-3.055,0.913c-0.382,0.232-0.669,0.264-1.045,0.016
			c-0.945-0.623-1.883-1.267-2.881-1.792c-0.413-0.217-0.691-0.611-1.15-0.738c-2.025-0.559-3.747-1.789-5.673-2.585
			c-1.465-0.606-2.964-0.864-4.47-1.21C4.713-0.077,4.664,0.494,4.3,0.275C3.51-0.202,2.708,0.237,1.91,0.243
			C1.305,0.248,1.003,0.692,0.598,1C0.332,1.203-0.199,1.15,0.078,1.789C0.31,2.325,0.77,2.508,1.127,2.336
			c0.981-0.472,1.998-0.365,3.005-0.36c0.34,0.002,0.759,0.196,1.019-0.003C5.59,1.637,5.916,1.908,6.236,2.067
			C6.382,2.14,6.478,2.194,6.653,2.235c0.723,0.17,1.452,0.399,2.101,0.75c0.254,0.138,0.477,0.4,0.791,0.472
			c0.919,0.212,1.594,0.932,2.492,1.184c0.834,0.234,1.347,0.991,2.182,1.264c1.077,0.353,1.985,1.071,2.977,1.611
			c0.553,0.301,0.504,0.681-0.01,1.015c-0.679,0.441-1.43,0.827-1.212,1.888c0.108,0.525,0.317,0.815,0.852,0.746
			c0.633-0.082,1.195-0.342,1.528-0.92c0.33-0.573,0.924-0.763,1.464-0.951c0.41-0.143,0.234,0.542,0.569,0.647
			c0.053,0.016,0.119,0.031,0.149,0.07c0.556,0.708,1.428,1.137,1.778,2.037c0.05,0.128,0.283,0.252,0.085,0.358
			c-0.508,0.273-0.549,0.901-1.028,1.208c-0.551,0.354-0.941,0.994-0.966,1.565c-0.047,1.058,0.016,2.147,0.581,3.14
			c0.663,1.166,1.631,2.179,2.738,2.674c1.187,0.53,2.655,1.079,4.035,0.172c0.188-0.123,0.569,0.145,0.617-0.221
			c0.063-0.48,0.426-0.726,0.724-0.976c0.457-0.383,0.396-1.145,0.337-1.683c-0.045-0.418-0.056-0.857-0.195-1.258
			c-0.155-0.443-0.432-0.809-0.55-1.29c-0.029-0.118-0.052-0.238-0.092-0.353c-0.083-0.237-0.4-0.53-0.364-0.793
			c0.355-0.035,0.507-0.023,0.783,0.177c0.237,0.172,0.384,0.226,0.588-0.041c0.135-0.177,0.554-0.015,0.729,0.159
			c0.507,0.505,1.112,0.977,1.508,1.509c0.689,0.925,1.322,1.804,2.222,2.594c0.53,0.465,1.28,0.627,1.957,0.73
			c0.577,0.088,1.562,0.306,2.105,0.103c0.894-0.334,1.906-0.345,2.69-0.987c0.12-0.098,0.307-0.101,0.378,0.007
			c0.243,0.372,0.769,0.325,1.003,0.773c0.139,0.266,0.606,0.608,0.952,0.377c0.985-0.66,1.967-1.349,2.444-2.52
			c0.111-0.272,0.208-0.561,0.444-0.782c0.139-0.129,0.25-0.312,0.411-0.416c0.158-0.103,0.336-0.183,0.502-0.287
			c0.137-0.086,0.24-0.065,0.385-0.09c0.121-0.021,0.1-0.112,0.263-0.005c0.229,0.151,0.274,0.498,0.593,0.556
			c0.053,0.01,0.099,0.049,0.15,0.071c0.803,0.338,1.616,0.656,2.407,1.019c1.013,0.465,1.213,0.513,2.067,0.352
			c0.06-0.011,0.154,0.038,0.201,0.089c0.367,0.396,0.365,0.399,0.828,0.128c1.318-0.772,2.492-1.773,3.91-2.392
			c0.503-0.219,0.62-0.162,0.828,0.316c0.253,0.581-0.505,0.549-0.49,1.007c0.007,0.215-0.213,0.515-0.27,0.799
			c-0.495-0.197-0.549,0.062-0.497,0.462c0.012,0.096-0.097,0.108-0.187,0.081c-0.41-0.121-0.57,0.212-0.813,0.425
			c-0.736,0.648-1.508,1.26-2.26,1.881c-0.938,0.774-1.757,1.605-2.392,2.615c-0.216,0.343-0.539,0.572-0.718,1.012
			c-0.247,0.606-0.484,1.159-0.411,1.802c0.13,1.136,0.358,2.221,1.117,3.169c0.596,0.745,1.072,0.974,1.954,0.532
			c1.266-0.633,2.375-1.52,3.14-2.679c0.611-0.926,1.097-1.959,1.579-2.98c0.563-1.191,0.923-2.441,1.338-3.662
			c0.38-1.118,1.058-1.965,2.004-2.36c0.907-0.378,1.6-1.059,2.522-1.396c0.598-0.219,1.065-0.729,1.766-0.859
			c0.792-0.146,1.087-0.032,1.229,0.807c0.031,0.185,0.045,0.377,0.068,0.561c0.053,0.431,0.269,0.817,0.464,1.141
			c0.195,0.323,0.233-0.359,0.512-0.291c0.045,0.011,0.074,0.076,0.12,0.1c0.338,0.178,0.614-0.021,0.907-0.146
			c0.914-0.389,1.577-1.142,2.358-1.709c1.193-0.865,2.449-1.654,3.59-2.596c0.47-0.387,1.152-0.328,1.216,0.072
			c0.073,0.451,0.435,0.573,0.673,0.808c0.744,0.734,1.851,0.992,2.517,1.842c0.387,0.494,1.093,0.698,1.263,1.392
			c0.086,0.347,1.352,0.451,1.651,0.522c0.661,0.155,1.575,0.293,2.088-0.261c0.345-0.372,1.109-0.432,1.64-0.603
			c0.55-0.177,1.006-0.542,1.521-0.793c0.129-0.063,0.261-0.118,0.398-0.161c0.117-0.036,0.245-0.044,0.36-0.085
			c0.288-0.103,0.57-0.308,0.825-0.475c0.298-0.195,0.595-0.389,0.893-0.584c0.056-0.036,0.112-0.073,0.163-0.115
			c0.101-0.081,0.182-0.101,0.292-0.149c0.077-0.033,0.151-0.103,0.217-0.153c0.122-0.092,0.246-0.185,0.359-0.287
			c0.102-0.091,0.188-0.201,0.289-0.291c0.095-0.084,0.216-0.054,0.338-0.077c0.03-0.005,0.06-0.012,0.089-0.009
			c0.252,0.028-0.069,0.19-0.129,0.225c-0.145,0.084-0.284,0.177-0.418,0.277c-0.608,0.451-1.14,1.01-1.655,1.564
			c-0.053,0.057-0.106,0.115-0.173,0.154c-0.082,0.048-0.179,0.063-0.264,0.105c-0.125,0.062-0.217,0.181-0.251,0.316
			c-0.032,0.131-0.034,0.217-0.166,0.291c-0.616,0.346-0.425,0.849-0.337,1.344c0.043,0.241,0.133,0.478,0.139,0.719
			c0.016,0.616,0.571,1.128,1.191,1.198c1.4,0.159,2.719-1.352,3.368-2.552c0.359-0.664,0.831-1.373,1.509-1.414
			c0.995-0.059,1.818-0.593,2.822-0.695c-0.131,0.347,0.243,0.78-0.012,0.993c-0.463,0.386-0.345,0.826-0.153,1.317
			c0.184,0.471,0.659,1.828,1.446,1.219c0.969-0.75,2.144-1.192,3.094-1.986c0.629-0.525,1.455-0.71,2.193-0.888
			c0.514-0.124,0.824-0.38,1.211-0.648c0.198,0.395,0.35,0.716,0.934,0.362c0.241-0.146,0.78,0.077,1.153,0.298
			c0.453,0.27,0.368,0.609,0.235,0.991c-0.063,0.18,0.012,0.432,0.183,0.327c0.496-0.305,1.198-0.05,1.581-0.621
			c0.677-1.011,2.094-0.817,2.842-1.721c0.018-0.021,0.103-0.004,0.148,0.016c0.707,0.313,1.363,0.139,2.057-0.112
			c0.656-0.237,1.425,0.66,1.461,1.368c0.03,0.586,0.338,1.16,0.412,1.77c0.015,0.123,0.171,0.214,0.333,0.169
			c0.369-0.102,0.773-0.007,1.121-0.239c0.909-0.606,2.062-0.605,2.987-1.182c0.441-0.274,1.012-0.124,1.484-0.317
			c0.505-0.206,0.884-0.307,1.454-0.344c0.04-0.003,1.12-0.162,0.915-0.334c0.551,0.462,1.176-0.096,1.777,0.151
			c0.696,0.286,1.406-0.174,2.114-0.11c0.301,0.027,0.524,0.183,0.806,0.251c0.606,0.145,1.224,0.304,1.834,0.404
			c0.314,0.051,0.599,0.195,0.903,0.25c0.684,0.125,1.167,0.21,1.767,0.595c0.848,0.542,1.789,0.605,2.702,0.763
			c0.28,0.049,0.363,0.406,0.61,0.285c0.826-0.402,1.44,0.577,2.354,0.259c0.657-0.229,1.422,0.425,2.229,0.495
			c0.778,0.067,1.38,0.298,1.799-0.62c0.15-0.329,0.627-0.51,1.157-0.911C143.873,18.325,144.331,17.574,143.865,17.328z
			 M98.842,3.972c-0.185,0.034-0.295,0.453-0.36,0.596c-0.122,0.268-0.167,0.562-0.394,0.79c-0.176,0.177-0.391,0.312-0.575,0.482
			c-0.109,0.101-0.206,0.214-0.303,0.327c-0.309,0.36-0.511,0.718-0.742,1.128C96.453,5.489,97.062,4.303,98.842,3.972z
			 M25.918,18.978c-1.695-0.083-2.61-0.735-3.339-2.258c-0.375-0.783-0.166-1.581,0.609-1.867c0.472-0.174,1.122-0.215,1.661,0.009
			c1.301,0.543,1.916,1.725,2.467,2.886C27.678,18.512,27.08,18.988,25.918,18.978z M56.295,22.968
			c-0.173,0.156-0.064,0.362-0.088,0.544c-0.057,0.431-0.081,0.751-0.351,1.1c-0.056,0.073-0.169,0.079-0.215,0.159
			c-0.046,0.08-0.026,0.258-0.058,0.355c-0.083,0.254-0.262,0.474-0.428,0.679c-0.059,0.072-0.118,0.145-0.181,0.213
			c-0.075,0.081-0.155,0.157-0.247,0.219c-0.106,0.071-0.224,0.123-0.323,0.204c-0.137,0.113-0.225,0.274-0.342,0.407
			c-0.22,0.251-0.556,0.219-0.861,0.262c-0.107,0.015-0.282,0.062-0.29-0.05c-0.042-0.59-0.618-1.083-0.111-1.79
			c0.811-1.13,1.791-2.078,2.841-2.955c0.228-0.191,0.49-0.91,0.944-0.365C56.768,22.168,56.612,22.682,56.295,22.968z
			 M80.124,12.869c-0.441,0.095-0.716-0.109-0.794-0.669c0.431-0.167,0.748-0.051,0.921,0.447
			C80.268,12.696,80.179,12.857,80.124,12.869z M92.158,14.427c0.182-0.106,0.366-0.212,0.593-0.343
			C92.636,14.447,92.376,14.396,92.158,14.427z"/>
		<path class="st1" d="M41.793,11.599c-0.135-0.023-0.268-0.061-0.406-0.058c-0.252,0.006-0.516,0.142-0.759,0.014
			c-0.23-0.121-0.335-0.384-0.555-0.523c-0.086-0.054-0.179-0.095-0.272-0.136c-0.078-0.034-0.156-0.069-0.233-0.103
			c0.034-0.057,0.019-0.138-0.034-0.179c-0.026-0.02-0.057-0.03-0.088-0.039c-0.201-0.057-0.414-0.02-0.607-0.067
			c-0.125-0.03-0.255-0.138-0.367-0.205c-0.25-0.149-0.513-0.311-0.635-0.588c-0.103-0.233-0.71-0.408-0.285-0.719
			c0.265-0.193,0.458-0.496,1.008-0.469c1.144,0.055,2,0.696,2.984,1.056c0.555,0.203,0.832,0.854,1.095,1.285
			c0.132,0.217,0.138,0.438-0.085,0.587c-0.132,0.088-0.268,0.096-0.414,0.139C42.019,11.627,41.905,11.618,41.793,11.599z"/>
		<path class="st1" d="M68.416,7.524c0.515,0.183,1.112,0.353,1.671,0.608c0.359,0.164,0.339,0.301-0.021,0.596
			c-0.089,0.073-0.072,0.123-0.062,0.2c0.039,0.306,0.274,0.817-0.151,0.832c-0.588,0.02-1.302,0.554-1.807-0.223
			c-0.074-0.114-0.173-0.267-0.285-0.292c-0.584-0.128-0.66-0.475-0.511-0.983C67.415,7.705,67.853,7.603,68.416,7.524z"/>
	</g>
</g>
</svg>
