<?xml version="1.0" encoding="utf-8"?>
<!-- Generator: Adobe Illustrator 25.0.1, SVG Export Plug-In . SVG Version: 6.00 Build 0)  -->
<svg version="1.1" id="圖層_1" xmlns="http://www.w3.org/2000/svg" xmlns:xlink="http://www.w3.org/1999/xlink" x="0px" y="0px"
	 viewBox="0 0 379.31 66.32" style="enable-background:new 0 0 379.31 66.32;" xml:space="preserve">
<style type="text/css">
	.st0{fill:#231815;}
</style>
<g>
	<path class="st0" d="M273.53,33.88c0.51-0.21,1.02-0.43,1.53-0.63c2.58-1,5.19-1.94,7.75-2.99c2.67-1.1,5.33-2.23,7.91-3.51
		c2.57-1.28,4.67-3.17,6.28-5.57c0.54-0.8,1.57-1.24,2.16-0.92c1.11,0.59,1.38,1.41,0.98,2.59c-0.66,1.94-2.08,3.34-3.35,4.84
		c-1.35,1.6-2.82,3.11-3.64,5.08c-0.07,0.16-0.11,0.33-0.23,0.68c0.42-0.12,0.71-0.17,0.98-0.28c3.21-1.3,6.11-3.16,9.12-4.83
		c3.64-2.02,7.2-4.31,11.41-5.07c1.89-0.34,3.81-0.66,5.71-0.13c0.65,0.18,1.29,0.56,1.79,1.02c0.45,0.41,0.84,0.72,1.46,0.63
		c1.71-0.24,3.27,1.98,2.19,3.51c-0.65,0.92-1.38,1.79-2.1,2.67c-0.56,0.69-1.15,1.37-1.73,2.05c0.06,0.1,0.12,0.19,0.18,0.29
		c0.79-0.15,1.6-0.23,2.36-0.45c3.39-0.99,6.53-2.56,9.58-4.27c0.63-0.35,0.92-1.26,1.45-1.83c1.31-1.39,2.68-2.71,4.01-4.08
		c0.37-0.38,0.75-0.77,1.01-1.22c0.75-1.3,1.82-2.25,3.14-2.89c1.4-0.68,2.83-1.35,4.3-1.86c3.11-1.09,5.7,0.3,7.54,2.51
		c1.74,2.09,2.11,4.45,0.95,6.94c-0.44,0.95-1.1,1.8-1.67,2.7c-0.22,0.35-0.43,0.69-0.7,1.12c0.86,0.36,1.62,0.76,2.42,0.99
		c1.78,0.51,3.58,1.01,5.4,1.37c2.54,0.49,5.11,0.91,7.67,1.24c1.9,0.24,3.82,0.31,5.73,0.42c0.55,0.03,1.12-0.06,1.67-0.13
		c1.09-0.13,1.75,0.2,2.28,1.13c0.47,0.83,0.04,1.46-0.42,2.1c-0.85,1.2-2.1,1.68-3.47,1.87c-3.08,0.43-6.12,0.06-9.15-0.49
		c-3.75-0.68-7.45-1.5-10.99-2.96c-1.68-0.69-3.42-1.33-5.2-1.7c-0.77-0.16-1.72,0.37-2.56,0.67c-1.99,0.71-3.98,1.44-5.95,2.2
		c-1.5,0.58-3.04,0.7-4.61,0.55c-1.74-0.17-2.93-1.15-3.69-2.86c-0.94,0.39-1.85,0.78-2.77,1.13c-2.25,0.86-4.49,1.78-6.78,2.51
		c-0.96,0.3-2.05,0.26-3.08,0.25c-1.64-0.02-2.8-0.87-3.4-2.38c-0.29-0.73-0.58-0.75-1.24-0.43c-1.75,0.84-3.49,1.75-5.33,2.34
		c-3.59,1.16-5.94-1.11-6.02-4.25c-0.01-0.5,0.21-1,0.37-1.7c-0.84,0.48-1.51,0.87-2.2,1.25c-2.24,1.23-4.44,2.51-6.73,3.65
		c-1.09,0.54-2.3,0.91-3.5,1.13c-2.69,0.51-4.63-1.81-3.8-4.44c0.12-0.39,0.26-0.77,0.46-1.34c-1.25,0.48-2.35,0.91-3.45,1.34
		c-2.28,0.88-4.56,1.76-6.85,2.62c-1.6,0.6-3.19,1.2-4.81,1.75c-1.6,0.54-3.24,0.84-4.95,0.52c-2.64-0.49-4.37-2.13-5.43-4.47
		c-0.61-1.33-0.99-2.77-1.43-4.18c-0.24-0.77-0.56-0.98-1.41-0.77c-2.52,0.61-4.57,1.95-6.54,3.56c-3.06,2.49-6.3,4.76-9.8,6.61
		c-0.72,0.38-1.52,0.64-2.3,0.91c-1.23,0.42-2.49-0.68-2.55-2.19c-0.01-0.23,0.03-0.46,0.05-0.75c-1.05,0.17-2.05,0.43-3.05,0.48
		c-1.58,0.07-3.18,0.11-4.75-0.06c-2.18-0.24-4.13-2.94-3.98-4.87c0.02-0.28,0-0.57,0-1.15c-0.75,0.87-1.37,1.51-1.91,2.22
		c-2.07,2.71-3.94,5.57-6.45,7.92c-1.1,1.03-2.11,2.14-3.13,3.25c-0.89,0.96-2.37,1.3-3.28,0.7c-1.11-0.72-1.74-2.39-1.19-3.51
		c0.37-0.75,0.82-1.55,1.45-2.06c2.86-2.3,5.08-5.13,7.15-8.12c0.98-1.42,2.26-2.65,3.21-4.09c1.41-2.13,2.65-4.37,3.94-6.57
		c0.09-0.15,0.07-0.36,0.13-0.77c-1.43,1.18-2.73,2.19-3.95,3.28c-2.48,2.22-4.94,4.47-7.36,6.76c-1.5,1.41-2.82,3.03-4.39,4.35
		c-2.08,1.76-4.13,3.63-6.81,4.52c-0.28,0.09-0.55,0.22-0.8,0.38c-1.95,1.28-4.02,1.17-6.13,0.55c-1.96-0.57-3.32-2.66-2.92-4.67
		c0.23-1.15,0.61-2.28,1.05-3.36c0.5-1.25,1.48-5.72,1.37-7.06c-0.85,0.32-1.71,0.54-2.46,0.94c-3.64,1.93-6.92,4.32-9.79,7.33
		c-2.45,2.57-4.63,5.32-6.73,8.15c-0.59,0.79-1.34,1.15-2.21,0.93c-0.96-0.24-1.75-1.01-1.78-1.97c-0.05-1.36,0.2-2.74,0.43-4.09
		c0.23-1.38,0.58-2.74,0.88-4.11c-0.07-0.06-0.14-0.13-0.22-0.19c-1.9,1.21-3.83,2.39-5.7,3.64c-2.4,1.6-4.74,3.28-7.13,4.88
		c-0.58,0.39-1.26,0.64-1.93,0.85c-2.25,0.72-4.5-0.86-4.52-3.24c-0.01-1.25,0.25-2.51,0.39-3.76c0.02-0.2,0.05-0.4,0.11-0.82
		c-0.37,0.3-0.59,0.47-0.8,0.64c-2.19,1.84-4.31,3.77-6.6,5.47c-0.95,0.71-2.22,1.08-3.41,1.33c-2.16,0.46-5.24-2.31-4.35-5.45
		c0.57-2,1.17-3.99,1.8-6.1c-0.34,0.11-0.69,0.15-0.95,0.33c-1.63,1.09-3.27,2.18-4.86,3.34c-1.92,1.4-3.42,3.22-4.79,5.15
		c-0.67,0.94-1.55,1.39-2.64,1.15c-1.08-0.23-2.15-1.61-2.1-2.79c0.05-1.22,0.36-2.43,0.49-3.66c0.2-1.8,0.35-3.61,0.53-5.54
		c-1.59,0.1-2.88,0.48-3.88,1.25c-1.49,1.13-2.81,2.49-4.14,3.81c-0.38,0.38-0.54,0.97-0.79,1.47c-0.99,1.96-1.94,3.95-2.99,5.88
		c-0.28,0.51-0.83,0.91-1.34,1.24c-0.92,0.6-1.83,0.47-2.66-0.28c-1.09-0.97-1.6-2.09-1.12-3.6c0.57-1.82,0.99-3.69,1.47-5.53
		c0.05-0.19,0.05-0.39,0.1-0.77c-0.4,0.24-0.69,0.36-0.93,0.56c-1.37,1.12-2.71,2.27-4.09,3.37c-0.67,0.53-1.4,0.97-2.12,1.43
		c-1.28,0.83-2.52,1.73-3.86,2.44c-3.11,1.66-5.07,1.38-7.52-0.55c-0.12-0.09-0.23-0.18-0.34-0.28c-1.26-1.21-2.44-2.4-4.43-2.57
		c-0.93-0.08-1.81-1.1-2.64-1.79c-0.4-0.33-0.68-0.44-1.03-0.05c-1.58,1.74-3.13,3.49-4.72,5.22c-1.53,1.66-2.84,3.65-4.89,4.65
		c-2.14,1.05-3.59,0.55-5.1-2.14c-1.14-2.04-1.1-4.3-0.6-6.55c0.39-1.71,0.75-3.43,1.12-5.14c-0.08-0.06-0.15-0.12-0.23-0.18
		c-0.99,0.76-2.04,1.46-2.97,2.29c-2.03,1.83-4.08,3.67-5.97,5.63c-1.4,1.46-2.79,3.01-3.79,4.74c-0.58,1.01-0.4,2.46-0.55,3.71
		c-0.1,0.79-0.16,1.58-0.26,2.36c-0.26,1.89-0.46,3.8-0.82,5.68c-0.56,2.91-1.05,5.86-1.94,8.67c-0.48,1.52-1.43,3.07-3.22,3.65
		c-2.44,0.79-4.93-1.3-5.16-3.39c-0.39-3.52,0.19-6.89,1.37-10.24c1.17-3.33,2.95-6.32,4.51-9.44c0.54-1.08,0.6-2.43,0.71-3.68
		c0.18-1.99,0.22-3.99,0.31-5.99c0.03-0.64,0-1.29,0-2.25c-0.41,0.63-0.66,1.08-0.97,1.48c-2.18,2.86-4.34,5.73-7.58,7.54
		c-2.28,1.27-4.57,1.23-6.87,0.19c-2.68-1.21-5.46-2.26-7.7-4.26c-1.43-1.27-2.84-2.57-4.21-3.9c-1.87-1.83-3.75-3.66-5.52-5.57
		c-1.56-1.68-2.98-3.5-4.48-5.24c-2.03-2.36-4.05-4.75-6.14-7.06c-2.86-3.17-5.79-6.27-8.65-9.44c-0.89-0.98-1.71-2.02-2.48-3.1
		c-0.22-0.3-0.36-1-0.19-1.17c0.35-0.35,0.99-0.72,1.41-0.62c0.77,0.17,1.59,0.54,2.19,1.06c2.54,2.23,5.07,4.49,7.48,6.86
		c2.27,2.25,4.39,4.65,6.56,7c1.62,1.75,3.22,3.51,4.81,5.28c0.96,1.07,1.83,2.24,2.84,3.26c2.15,2.18,4.39,4.27,6.53,6.45
		c1.78,1.81,3.71,3.45,5.95,4.63c1.29,0.68,2.72,1.23,4.15,1.44c0.88,0.13,1.95-0.35,2.78-0.82c1.88-1.06,3.16-2.8,4.5-4.44
		c1.37-1.68,2.7-3.41,3.84-5.24c1.76-2.81,3.53-5.65,4.23-8.98c0.21-1.01,1.48-1.76,2.55-1.59c1.66,0.26,2.19,0.79,2.07,2.26
		c-0.07,0.77-0.33,1.53-0.48,2.29c-0.26,1.3-0.57,2.59-0.75,3.89c-0.24,1.72-0.4,3.45-0.55,5.17c-0.19,2.13-0.34,4.27-0.52,6.65
		c0.38-0.26,0.59-0.34,0.72-0.49c1.92-2.35,4.29-4.2,6.64-6.08c2.35-1.87,4.72-3.72,7.09-5.55c0.72-0.55,1.52-0.9,2.48-0.59
		c1.4,0.46,1.8,0.89,1.67,2.37c-0.16,1.81-0.47,3.61-0.74,5.4c-0.36,2.35-0.75,4.7-1.14,7.18c0.23-0.09,0.35-0.11,0.41-0.17
		c2.28-2.46,4.51-4.98,6.86-7.38c4.25-4.34,9.09-7.61,15.45-7.78c1.85-0.05,3.61,0.48,4.94,1.82c1.53,1.54,1.5,3.43,1.04,5.45
		c-0.48,2.12-2.06,3.15-3.67,4.19c-0.78,0.51-1.65,0.89-2.47,1.33c0.02,0.08,0.03,0.16,0.05,0.23c0.33-0.05,0.7-0.04,1-0.17
		c2.93-1.31,5.58-3.05,8.01-5.14c2.05-1.77,4.14-3.5,6.15-5.32c2.57-2.31,4.61-4.98,5.9-8.26c0.85-2.18,2.11-4.2,3.21-6.27
		c0.36-0.67,0.75-1.35,1.24-1.92c1.05-1.22,2.32-1.35,3.66-0.65c1.09,0.57,1.24,2.03,0.77,3.32c-0.55,1.51-1.36,2.94-2.12,4.37
		c-1.41,2.65-3.27,5.05-4.17,7.97c-0.27,0.88-0.73,1.69-1.1,2.54c0.09,0.08,0.19,0.15,0.28,0.23c0.58-0.36,1.16-0.72,1.74-1.09
		c1.87-1.19,4.01-1.64,6.14-1.72c2.38-0.09,3.88,1.48,4.1,3.86c0.1,1.11,0.12,2.22,0.18,3.53c0.72-0.5,1.29-0.88,1.85-1.28
		c3.23-2.3,6.63-4.3,10.3-5.79c3.81-1.54,7.76-2.54,11.91-2.11c1.22,0.13,2.59,0.49,3.52,1.21c0.84,0.66,1.65,1.17,2.61,1.6
		c0.42,0.19,0.8,0.99,0.8,1.51c0,0.88-0.21,1.8-0.51,2.63c-0.75,2.07-1.63,4.09-2.42,6.14c-0.15,0.39-0.15,0.85-0.27,1.58
		c0.85-0.49,1.49-0.82,2.08-1.21c2.62-1.75,5.2-3.55,7.84-5.26c1.83-1.18,3.77-2.2,5.59-3.39c1.07-0.71,2.08-0.65,3.07-0.06
		c0.95,0.57,0.91,1.61,0.83,2.55c-0.1,1.17-0.33,2.33-0.33,3.61c0.19-0.18,0.37-0.36,0.56-0.54c3.32-3.28,6.74-6.44,10.95-8.56
		c1.44-0.72,2.94-1.41,4.5-1.79c2.88-0.7,4.93,1.29,5.08,4.04c0.17,3.11-0.45,6.08-1.53,8.98c-0.2,0.54-0.34,1.11-0.57,1.86
		c0.55-0.07,0.93-0.06,1.26-0.17c2.83-0.95,5.35-2.43,7.53-4.48c1.71-1.61,3.48-3.17,5.2-4.78c1.52-1.43,2.94-2.99,4.53-4.34
		c2.72-2.3,5.49-4.56,8.34-6.69c1.31-0.98,2.82-1.71,4.3-2.43c1.61-0.78,3.34,0.39,3.22,2.15c-0.15,2.33-0.52,4.64-1.49,6.78
		c-0.97,2.14-2.07,4.21-3.12,6.31c-0.09,0.17-0.17,0.35-0.18,0.57c0.71-0.76,1.36-1.59,2.14-2.27c1.72-1.48,3.64-2.66,5.97-2.83
		c1.95-0.15,3.74,0.35,5.48,1.35c1.9,1.1,3.58,2.37,4.94,4.08c0.4,0.5,0.82,0.27,1.27,0.09c2.43-0.96,4.63-2.22,6.54-4.09
		c2.11-2.08,4.47-3.92,6.68-5.9c1.14-1.02,2.33-2.02,3.29-3.19c2.38-2.93,5.18-5.56,6.55-9.22c0.36-0.96,0.89-1.86,1.44-2.73
		c0.39-0.61,0.87-1.29,1.79-0.88c0.8,0.35,1.13,1.1,0.82,2.09c-0.35,1.13-0.72,2.26-1.24,3.31c-0.95,1.92-1.89,3.85-3.05,5.64
		c-1.06,1.62-2.37,3.07-3.63,4.54c-1.23,1.42-2.54,2.78-3.8,4.17c-0.25,0.28-0.46,0.59-0.81,1.04c0.49,0,0.8-0.01,1.11,0
		c2.73,0.06,5.48-0.15,8.09,0.99c1.75,0.77,2.86,2.33,2.71,4.23c-0.12,1.61-0.49,3.1-1.98,4.05
		C273.61,33.57,273.59,33.75,273.53,33.88c-0.17-0.04-0.34-0.13-0.51-0.12c-1.86,0.09-3.62-0.31-5.33-1
		c-0.17-0.07-0.38-0.04-0.6-0.06c0.35,1.2,1.66,2.04,2.98,1.86C271.24,34.39,272.38,34.11,273.53,33.88z M244.32,31.11
		c-1.18-1.62-2.78-2.35-4.53-2.85c-1.29-0.37-2.64-0.42-3.78,0.26c-1.55,0.93-3.11,1.91-4.07,3.57c-0.48,0.83-0.49,1.2,0.48,1.32
		c1.23,0.15,2.54,0.22,3.74-0.02c2.42-0.49,4.79-1.2,7.17-1.84C243.66,31.46,243.96,31.27,244.32,31.11z M147.03,35.15
		c0.1,0.07,0.21,0.14,0.31,0.21c3.52-2.99,7.03-5.98,10.63-9.04c-1.97-0.99-5.36-0.38-6.9,0.92c-1.33,1.13-2.11,2.6-2.76,4.14
		C147.78,32.6,147.45,33.89,147.03,35.15z M349.62,20.91c-0.94,0.32-1.88,0.61-2.81,0.96c-0.16,0.06-0.38,0.39-0.33,0.51
		c0.49,1.37-0.17,2.41-0.95,3.4c-0.31,0.39-0.22,0.64,0.15,0.85c0.69,0.39,1.39,0.77,2.08,1.16c0.68,0.39,1.32,0.28,1.86-0.25
		c0.71-0.7,1.42-1.41,2.06-2.18c0.7-0.84,1-1.88,0.56-2.89C351.79,21.44,350.79,21.09,349.62,20.91z M319.78,27.35
		c-3.99-1.41-9.17,2.45-10.82,6.13C311.03,33.78,318.99,29.3,319.78,27.35z M92.57,29.08c0.73,0.53,1.46,1.07,2.2,1.59
		c0.09,0.06,0.23,0.09,0.34,0.07c1.89-0.39,3.77-0.79,5.02-2.46c0.22-0.3,0.28-0.72,0.42-1.09c-0.35-0.12-0.69-0.32-1.04-0.35
		c-2.51-0.22-4.63,0.93-6.77,1.98C92.66,28.85,92.63,28.96,92.57,29.08z M343.79,30.74c-0.77-0.55-1.36-1.02-2-1.41
		c-0.16-0.1-0.52,0-0.71,0.12c-1.05,0.7-2.09,1.42-3.11,2.16c-0.27,0.2-0.43,0.52-0.65,0.79C339.7,32.51,341.62,31.5,343.79,30.74z
		 M266.63,27.99c1.53,0.88,3.03,1.76,4.84,1.68c0.28-0.01,0.54-0.16,0.82-0.24c-0.16-0.31-0.25-0.78-0.5-0.91
		C270.14,27.71,268.38,27.88,266.63,27.99z"/>
	<path class="st0" d="M79.92,9.31c-0.1,0.24-0.25,0.71-0.5,1.14c-0.35,0.62-0.76,0.67-1.44,0.28c-1.37-0.78-2.18-2.02-2.96-3.28
		c-0.42-0.68-0.48-1.41,0.12-2.11c0.57-0.67,1.19-0.65,1.91-0.35C78.43,5.55,79.94,7.68,79.92,9.31z"/>
	<path class="st0" d="M304.83,9.34c-0.17,0.41-0.41,0.98-0.65,1.55c-0.54-0.25-1.23-0.37-1.6-0.77c-0.83-0.89-1.59-1.87-2.21-2.91
		c-0.5-0.85-0.12-1.77,0.69-2.28c0.73-0.46,1.28-0.35,2.05,0.52C304.04,6.49,304.63,7.69,304.83,9.34z"/>
</g>
</svg>
