<?xml version="1.0" encoding="utf-8"?>
<!-- Generator: Adobe Illustrator 25.0.1, SVG Export Plug-In . SVG Version: 6.00 Build 0)  -->
<svg version="1.1" xmlns="http://www.w3.org/2000/svg" xmlns:xlink="http://www.w3.org/1999/xlink" x="0px" y="0px" width="50px"
	 height="50px" viewBox="0 0 50 50" style="enable-background:new 0 0 50 50;" xml:space="preserve">
<style type="text/css">
	.st0{fill:#FFFFFF;}
	.st1{fill:#222222;}
	.st2{fill:#EEEEEF;}
	.st3{fill:#3E3A39;}
	.st4{fill:#3D393A;}
</style>
<g id="圖層_1">
</g>
<g id="圖層_2">
	<g>
		<circle class="st2" cx="25" cy="25" r="25"/>
		<path class="st3" d="M22.712,23.93c0,0,3.022-0.224,3.022-3.768c0-3.543-2.472-5.273-5.603-5.273H9.826v19.801H20.13
			c0,0,6.29,0.199,6.29-5.844C26.421,28.846,26.695,23.93,22.712,23.93L22.712,23.93z M19.389,18.409h0.742c0,0,1.401,0,1.401,2.06
			c0,2.06-0.824,2.359-1.758,2.359h-5.407v-4.419L19.389,18.409L19.389,18.409z M19.839,31.171h-5.473V25.88h5.764
			c0,0,2.088-0.027,2.088,2.719C22.218,30.915,20.659,31.154,19.839,31.171L19.839,31.171z M34.81,19.927
			c-7.615,0-7.608,7.608-7.608,7.608s-0.522,7.569,7.608,7.569c0,0,6.776,0.387,6.776-5.265h-3.485c0,0,0.116,2.129-3.175,2.129
			c0,0-3.485,0.234-3.485-3.445h10.261C41.701,28.523,42.824,19.927,34.81,19.927L34.81,19.927z M31.402,25.88
			c0,0,0.426-3.052,3.485-3.052c3.058,0,3.02,3.052,3.02,3.052H31.402z M38.719,18.494h-8.17v-2.438h8.17V18.494L38.719,18.494z"/>
	</g>
</g>
</svg>
