<?xml version="1.0" encoding="utf-8"?>
<!-- Generator: Adobe Illustrator 25.0.1, SVG Export Plug-In . SVG Version: 6.00 Build 0)  -->
<svg version="1.1" xmlns="http://www.w3.org/2000/svg" xmlns:xlink="http://www.w3.org/1999/xlink" x="0px" y="0px" width="50px"
	 height="50px" viewBox="0 0 50 50" style="enable-background:new 0 0 50 50;" xml:space="preserve">
<style type="text/css">
	.st0{fill:#FFFFFF;}
	.st1{fill:#222222;}
	.st2{fill:#EEEEEF;}
	.st3{fill:#3E3A39;}
	.st4{fill:#3D393A;}
</style>
<g id="圖層_1">
</g>
<g id="圖層_2">
	<g>
		<circle class="st2" cx="25" cy="25" r="25"/>
		<g>
			<path class="st4" d="M39.961,18.887c-0.067-1.456-0.284-2.588-0.704-3.672c-0.417-1.068-0.961-1.903-1.763-2.708
				c-0.805-0.805-1.639-1.348-2.707-1.763c-1.086-0.422-2.219-0.639-3.671-0.704c-1.596-0.073-2.124-0.089-6.113-0.089
				c-4.014,0-4.538,0.017-6.113,0.089c-1.457,0.067-2.59,0.284-3.671,0.704c-1.066,0.414-1.902,0.958-2.708,1.763
				c-0.806,0.806-1.351,1.642-1.764,2.708c-0.421,1.082-0.638,2.214-0.704,3.672C9.967,20.46,9.95,20.984,9.95,25
				s0.017,4.54,0.09,6.113c0.066,1.457,0.283,2.589,0.704,3.671c0.415,1.069,0.959,1.905,1.764,2.708
				c0.803,0.803,1.638,1.346,2.708,1.764c1.082,0.42,2.214,0.637,3.671,0.703c1.615,0.073,2.147,0.09,6.112,0.09
				c4.018,0,4.542-0.018,6.113-0.09c1.458-0.067,2.59-0.284,3.671-0.704c1.067-0.416,1.902-0.96,2.708-1.763
				c0.802-0.802,1.346-1.638,1.764-2.708c0.421-1.087,0.638-2.219,0.703-3.671c0.072-1.581,0.088-2.107,0.088-6.113
				C40.049,20.991,40.033,20.466,39.961,18.887z M36.883,25c0,3.955-0.015,4.42-0.086,5.969c-0.064,1.406-0.296,2.164-0.493,2.669
				c-0.255,0.655-0.559,1.123-1.05,1.614c-0.492,0.492-0.96,0.796-1.616,1.051c-0.502,0.196-1.26,0.429-2.669,0.493
				C29.44,36.866,28.978,36.88,25,36.88c-3.976,0-4.438-0.015-5.967-0.085c-1.41-0.064-2.167-0.296-2.669-0.493
				c-0.655-0.254-1.123-0.559-1.615-1.051c-0.493-0.492-0.797-0.959-1.051-1.614c-0.195-0.501-0.428-1.258-0.493-2.669
				C13.135,29.431,13.12,28.967,13.12,25c0-3.94,0.015-4.407,0.085-5.968c0.064-1.404,0.297-2.163,0.493-2.669
				c0.255-0.656,0.56-1.124,1.051-1.616c0.493-0.494,0.961-0.798,1.615-1.051c0.502-0.196,1.259-0.429,2.669-0.493
				c1.53-0.071,1.992-0.085,5.967-0.085c3.95,0,4.417,0.015,5.969,0.085c1.402,0.064,2.162,0.296,2.669,0.493
				c0.653,0.253,1.121,0.557,1.616,1.051c0.491,0.491,0.795,0.959,1.05,1.616c0.196,0.501,0.429,1.258,0.493,2.669
				C36.868,20.58,36.883,21.045,36.883,25z"/>
			<path class="st4" d="M25,17.15c-4.329,0-7.85,3.521-7.85,7.85s3.521,7.85,7.85,7.85s7.85-3.521,7.85-7.85S29.329,17.15,25,17.15z
				 M29.682,25c0,2.581-2.101,4.682-4.682,4.682S20.319,27.581,20.319,25s2.1-4.682,4.681-4.682S29.682,22.418,29.682,25z"/>
			<path class="st4" d="M32.901,15.074c-1.118,0-2.027,0.909-2.027,2.026c0,1.118,0.91,2.027,2.027,2.027
				c1.118,0,2.028-0.91,2.028-2.027C34.929,15.982,34.019,15.074,32.901,15.074z"/>
		</g>
	</g>
</g>
</svg>
